<?xml version="1.0" encoding="utf-8"?>
<!-- Generator: Adobe Illustrator 23.1.0, SVG Export Plug-In . SVG Version: 6.00 Build 0)  -->
<svg version="1.1" id="Layer_1" xmlns="http://www.w3.org/2000/svg" xmlns:xlink="http://www.w3.org/1999/xlink" x="0px" y="0px"
	 viewBox="0 0 499.9 50.6" style="enable-background:new 0 0 499.9 50.6;" xml:space="preserve">
<style type="text/css">
	.st0{fill:#1E2F4D;}
	.st1{fill:#7585BD;}
	.st2{fill:#37B7C2;}
	.st3{fill-rule:evenodd;clip-rule:evenodd;fill:#1E2F4D;}
</style>
<path class="st0" d="M166.2,44.4c-0.3,0-0.6,0-0.9,0H163v4.2h-1.2V37c1.1-0.1,2.5-0.1,3.8-0.1c2.7,0,4.5,1.3,4.5,3.7
	c0,1.7-1,3-2.7,3.6l3.4,4.5h-1.5L166.2,44.4z M165.7,43.3c1.9,0,3.2-1,3.2-2.8c0-1.7-1.3-2.6-3.3-2.6c-0.9,0-1.7,0-2.7,0.1v5.3
	C163,43.3,165.7,43.3,165.7,43.3z"/>
<polygon class="st0" points="180.3,42.2 180.3,43.3 174.2,43.3 174.2,47.5 181.1,47.5 181.1,48.6 173,48.6 173,37 181.1,37 
	181.1,38.1 174.2,38.1 174.2,42.2 "/>
<path class="st0" d="M194.7,47.6c-1.8,0.8-3.6,1.2-5.3,1.2c-3.7,0-6.2-2.4-6.2-6.1s2.5-6.1,6.2-6.1c1.3,0,2.9,0.2,4.2,0.6l-0.3,1.1
	c-1.5-0.3-2.8-0.6-3.8-0.6c-3,0-5,2-5,4.9c0,2.9,2,5,5,5c1.3,0,2.7-0.2,4.1-0.8v-3.6h-4.7v-1.1h5.8L194.7,47.6L194.7,47.6z"/>
<rect x="197.5" y="37" class="st0" width="1.2" height="11.7"/>
<path class="st0" d="M210,38.5c-1.3-0.4-2.8-0.6-3.9-0.6c-1.7,0-2.8,0.8-2.8,2.2c0,1.2,0.9,1.6,2.9,2c2.6,0.6,4.4,1.1,4.4,3.4
	c0,2.2-1.8,3.4-4.3,3.4c-1.5,0-3.4-0.3-4.8-1l0.3-1.1c1.5,0.6,3.2,1,4.5,1c1.8,0,3.1-0.8,3.1-2.2c0-1.8-2-2.1-3.9-2.4
	c-2.6-0.6-3.6-1.3-3.6-3c0-2,1.7-3.3,4.1-3.3c1.5,0,3.1,0.3,4.2,0.7L210,38.5z"/>
<polygon class="st0" points="217.7,48.6 216.5,48.6 216.5,38.1 211.9,38.1 211.9,37 222.3,37 222.3,38.1 217.7,38.1 "/>
<path class="st0" d="M228.4,44.4c-0.3,0-0.6,0-0.9,0h-2.3v4.2H224V37c1.1-0.1,2.5-0.1,3.8-0.1c2.7,0,4.5,1.3,4.5,3.7
	c0,1.7-1,3-2.7,3.6l3.4,4.5h-1.5L228.4,44.4z M227.8,43.3c1.9,0,3.2-1,3.2-2.8c0-1.7-1.3-2.6-3.3-2.6c-0.9,0-1.7,0-2.7,0.1v5.3
	C225.1,43.3,227.8,43.3,227.8,43.3z"/>
<polygon class="st0" points="242.5,42.2 242.5,43.3 236.4,43.3 236.4,47.5 243.2,47.5 243.2,48.6 235.1,48.6 235.1,37 243.2,37 
	243.2,38.1 236.4,38.1 236.4,42.2 "/>
<polygon class="st0" points="260.5,48.6 259.3,48.6 251.7,38.9 251.7,48.6 250.6,48.6 250.6,37 251.7,37 259.3,46.7 259.3,37 
	260.5,37 "/>
<path class="st0" d="M264.2,48.6h-1.4l5.3-11.7h1.2l5.3,11.7h-1.3l-1.3-2.9h-6.6L264.2,48.6z M265.9,44.6h5.5l-2.7-6.2L265.9,44.6z"
	/>
<polygon class="st0" points="279.9,48.6 278.7,48.6 278.7,38.1 274.2,38.1 274.2,37 284.6,37 284.6,38.1 279.9,38.1 "/>
<rect x="286.2" y="37" class="st0" width="1.2" height="11.7"/>
<path class="st0" d="M302.4,42.8c0,3.6-2.5,6.1-6.1,6.1c-3.6,0-6.1-2.4-6.1-6.1s2.5-6.1,6.1-6.1S302.4,39.1,302.4,42.8 M301.1,42.8
	c0-2.9-2-5-4.9-5c-2.9,0-4.8,2-4.8,5c0,2.9,2,5,4.8,5C299.1,47.7,301.1,45.8,301.1,42.8"/>
<polygon class="st0" points="315,48.6 313.8,48.6 306.3,38.9 306.3,48.6 305.1,48.6 305.1,37 306.3,37 313.8,46.7 313.8,37 315,37 
	"/>
<path class="st0" d="M318.8,48.6h-1.4l5.3-11.7h1.2l5.3,11.7h-1.3l-1.3-2.9h-6.5L318.8,48.6z M320.4,44.6h5.5l-2.7-6.2L320.4,44.6z"
	/>
<polygon class="st0" points="331.5,48.6 331.5,37 332.7,37 332.7,47.5 339.1,47.5 339.1,48.6 "/>
<path class="st0" d="M355.9,42.7c0,3.7-2.5,6-5.9,6c-1.4,0-3.1-0.1-4-0.1V37c1-0.1,2.6-0.1,3.9-0.1
	C353.5,36.8,355.9,39.1,355.9,42.7 M354.6,42.7c0-2.9-2-4.7-4.8-4.7c-0.8,0-1.8,0.1-2.7,0.1v9.5c0.9,0,2,0.1,2.9,0.1
	C352.7,47.6,354.6,45.8,354.6,42.7"/>
<polygon class="st0" points="366,42.2 366,43.3 359.8,43.3 359.8,47.5 366.7,47.5 366.7,48.6 358.6,48.6 358.6,37 366.7,37 
	366.7,38.1 359.8,38.1 359.8,42.2 "/>
<path class="st0" d="M377.5,38.5c-1.3-0.4-2.8-0.6-3.9-0.6c-1.7,0-2.8,0.8-2.8,2.2c0,1.2,0.9,1.6,2.9,2c2.6,0.6,4.5,1.1,4.5,3.4
	c0,2.2-1.8,3.4-4.3,3.4c-1.5,0-3.4-0.3-4.8-1l0.3-1.1c1.5,0.6,3.2,1,4.5,1c1.8,0,3.1-0.8,3.1-2.2c0-1.8-2-2.1-3.9-2.4
	c-2.6-0.6-3.6-1.3-3.6-3c0-2,1.7-3.3,4.1-3.3c1.5,0,3.1,0.3,4.2,0.7L377.5,38.5z"/>
<polygon class="st0" points="393,42.2 393,43.3 386.9,43.3 386.9,47.5 393.7,47.5 393.7,48.6 385.6,48.6 385.6,37 393.7,37 
	393.7,38.1 386.9,38.1 386.9,42.2 "/>
<polygon class="st0" points="406.6,48.6 405.3,48.6 397.8,38.9 397.8,48.6 396.6,48.6 396.6,37 397.8,37 405.3,46.7 405.3,37 
	406.6,37 "/>
<polygon class="st0" points="414,48.6 412.8,48.6 412.8,38.1 408.2,38.1 408.2,37 418.6,37 418.6,38.1 414,38.1 "/>
<path class="st0" d="M424.7,44.4c-0.3,0-0.6,0-0.9,0h-2.3v4.2h-1.2V37c1.1-0.1,2.5-0.1,3.8-0.1c2.7,0,4.5,1.3,4.5,3.7
	c0,1.7-1,3-2.7,3.6l3.4,4.5h-1.5L424.7,44.4z M424.2,43.3c1.9,0,3.2-1,3.2-2.8c0-1.7-1.3-2.6-3.3-2.6c-0.9,0-1.7,0-2.7,0.1v5.3
	C421.4,43.3,424.2,43.3,424.2,43.3z"/>
<polygon class="st0" points="438.8,42.2 438.8,43.3 432.7,43.3 432.7,47.5 439.5,47.5 439.5,48.6 431.4,48.6 431.4,37 439.5,37 
	439.5,38.1 432.7,38.1 432.7,42.2 "/>
<path class="st0" d="M450.9,40.7c0,2.4-1.8,3.9-4.5,3.9h-2.7v4h-1.2V37c1.3-0.1,2.6-0.1,3.9-0.1C449.1,36.8,450.9,38.3,450.9,40.7
	 M446.5,43.5c1.9,0,3.3-1.1,3.3-2.8c0-1.8-1.3-2.8-3.3-2.8c-0.9,0-1.8,0-2.9,0.1v5.5H446.5z"/>
<path class="st0" d="M457.5,44.4c-0.3,0-0.6,0-0.9,0h-2.3v4.2h-1.2V37c1.1-0.1,2.5-0.1,3.8-0.1c2.7,0,4.5,1.3,4.5,3.7
	c0,1.7-1,3-2.7,3.6l3.4,4.5h-1.5L457.5,44.4z M457,43.3c1.9,0,3.2-1,3.2-2.8c0-1.7-1.3-2.6-3.3-2.6c-0.9,0-1.7,0-2.7,0.1v5.3
	C454.2,43.3,457,43.3,457,43.3z"/>
<rect x="464.3" y="37" class="st0" width="1.2" height="11.7"/>
<path class="st0" d="M476.8,38.5c-1.3-0.4-2.8-0.6-3.9-0.6c-1.7,0-2.8,0.8-2.8,2.2c0,1.2,0.9,1.6,2.9,2c2.6,0.6,4.4,1.1,4.4,3.4
	c0,2.2-1.8,3.4-4.3,3.4c-1.5,0-3.4-0.3-4.8-1l0.3-1.1c1.5,0.6,3.2,1,4.5,1c1.8,0,3.1-0.8,3.1-2.2c0-1.8-2-2.1-3.9-2.4
	c-2.6-0.6-3.6-1.3-3.6-3c0-2,1.7-3.3,4.1-3.3c1.5,0,3.1,0.3,4.2,0.7L476.8,38.5z"/>
<polygon class="st0" points="487.8,42.2 487.8,43.3 481.6,43.3 481.6,47.5 488.5,47.5 488.5,48.6 480.4,48.6 480.4,37 488.5,37 
	488.5,38.1 481.6,38.1 481.6,42.2 "/>
<path class="st0" d="M499.3,38.5c-1.3-0.4-2.8-0.6-3.9-0.6c-1.7,0-2.8,0.8-2.8,2.2c0,1.2,0.9,1.6,2.9,2c2.6,0.6,4.4,1.1,4.4,3.4
	c0,2.2-1.8,3.4-4.3,3.4c-1.5,0-3.4-0.3-4.8-1l0.3-1.1c1.5,0.6,3.2,1,4.5,1c1.8,0,3.1-0.8,3.1-2.2c0-1.8-2-2.1-3.9-2.4
	c-2.6-0.6-3.6-1.3-3.6-3c0-2,1.7-3.3,4.1-3.3c1.5,0,3.1,0.3,4.2,0.7L499.3,38.5z"/>
<rect x="344.2" y="15.7" class="st1" width="1.8" height="1.8"/>
<rect x="312.4" y="13.6" class="st2" width="1.8" height="1.8"/>
<rect x="312.4" y="16.8" class="st2" width="1.8" height="1.8"/>
<rect x="166.8" y="16.9" class="st2" width="1.8" height="1.8"/>
<rect x="169.3" y="16.9" class="st2" width="1.8" height="1.8"/>
<path class="st0" d="M161.5,20.7h1.8v1.5h-1.8V20.7z M167.6,28.8c-2,0-3.4-0.6-4.5-1.6c-1.1-1-1.6-2.7-1.6-5h1.8
	c0,0.8,0.1,1.5,0.1,2.1c0.1,0.6,0.3,1,0.6,1.5c0.3,0.3,0.8,0.6,1.3,0.8s1.3,0.3,2.2,0.3V28.8L167.6,28.8z M167.6,26.8h9.8v2h-9.8
	V26.8z M175.7,20.7h1.8v6.1h-1.8V20.7z"/>
<path class="st0" d="M181.2,28.8h-1.8V13.5h1.8V28.8z M184.8,28.8h-3.6v-1.9h3.6V28.8z"/>
<rect x="184.8" y="26.8" class="st0" width="5.4" height="1.9"/>
<rect x="190.2" y="26.8" class="st0" width="5.4" height="1.9"/>
<rect x="195.6" y="26.8" class="st0" width="5.4" height="1.9"/>
<path class="st0" d="M201.1,26.8h17.2v2h-17.2V26.8z M205.4,20.7h1.8v6.1h-1.8V20.7z M209.7,20.7h1.8v6.1h-1.8V20.7z M214,20.7h1.8
	v6.1H214V20.7z"/>
<rect x="218.2" y="26.8" class="st0" width="5.4" height="1.9"/>
<path class="st0" d="M223.6,26.8h12.9v2h-12.9V26.8z M228,20.7h1.8v6.1H228V20.7z M232.3,20.7h1.8v6.1h-1.8V20.7z M236.5,20.7h1.8
	v8.1h-1.8V20.7z"/>
<path class="st0" d="M244.4,19.2h-4.6v-1h4.6V19.2z M239.8,26.8c0-1.1,0.1-2.1,0.4-2.9c0.3-0.8,0.7-1.5,1.3-2c0.6-0.6,1.2-0.9,2-1.2
	c0.8-0.3,1.6-0.4,2.6-0.4v1.9c-0.9,0-1.7,0.1-2.2,0.3c-0.6,0.2-1,0.5-1.3,0.8c-0.3,0.4-0.6,0.8-0.6,1.5c-0.1,0.6-0.2,1.3-0.2,2.1
	H239.8z M239.8,26.8h6.2v2h-6.2V26.8z M243.7,15.8c-0.3,0-0.7,0-1,0.1c-0.3,0.1-0.5,0.1-0.7,0.3c-0.2,0.1-0.3,0.4-0.4,0.7
	s-0.1,0.7-0.1,1.2h-0.9c0-1,0.3-1.8,0.8-2.4c0.5-0.6,1.3-0.8,2.4-0.8V15.8z M246,20.3h1.8v13.5H246V20.3z M247.8,26.8h3v2h-3V26.8z"
	/>
<rect x="250.8" y="26.8" class="st0" width="5.4" height="1.9"/>
<path class="st0" d="M256.3,26.8h13v2h-13V26.8z M259.1,20.4h1.8v6.6h-1.8V20.4z M260.9,20.4c1,0,2,0.1,2.8,0.4s1.5,0.8,2,1.3
	c0.5,0.6,0.9,1.3,1.1,2c0.3,0.8,0.3,1.7,0.3,2.7h-1.8c0-1-0.1-1.7-0.3-2.3c-0.1-0.6-0.4-1-0.8-1.4c-0.3-0.3-0.8-0.6-1.4-0.7
	c-0.6-0.1-1.2-0.2-2-0.2V20.4z"/>
<rect x="269.2" y="26.8" class="st0" width="5.4" height="1.9"/>
<rect x="274.6" y="26.8" class="st0" width="5.4" height="1.9"/>
<path class="st0" d="M280.1,26.8h8.3v2h-8.3V26.8z M284.4,13.6h1.8v13.2h-1.8V13.6z"/>
<rect x="288.4" y="26.8" class="st0" width="5.4" height="1.9"/>
<rect x="293.8" y="26.8" class="st0" width="5.4" height="1.9"/>
<path class="st0" d="M299.2,26.8h6.2v2h-6.2V26.8z M303.6,13.6h1.8v13.2h-1.8V13.6z"/>
<path class="st0" d="M318.6,28.8c-2,0-3.4-0.6-4.5-1.6c-1.1-1-1.6-2.7-1.6-5h1.8c0,0.8,0.1,1.5,0.1,2.1c0.1,0.6,0.3,1,0.6,1.5
	c0.3,0.3,0.8,0.6,1.3,0.8s1.3,0.3,2.2,0.3L318.6,28.8L318.6,28.8z M325.7,28.8h-7.1v-1.9h7.1V28.8z M330.1,22.2
	c-0.8,0-1.4,0.1-2,0.2c-0.6,0.1-1,0.3-1.4,0.7c-0.3,0.3-0.6,0.8-0.8,1.4c-0.1,0.6-0.3,1.4-0.3,2.3h-1.8c0-1,0.1-2,0.3-2.7
	c0.3-0.8,0.6-1.5,1.1-2c0.5-0.6,1.2-1,2-1.3c0.8-0.3,1.7-0.4,2.8-0.4V22.2z M332,28.8h-1.8v-8.4h1.8V28.8z M334.4,28.8H332v-1.9h2.4
	V28.8z"/>
<rect x="334.4" y="26.8" class="st0" width="5.4" height="1.9"/>
<path class="st0" d="M339.8,26.8h9.7v2h-9.7V26.8z M344.2,20.7h1.8v6.1h-1.8V20.7z"/>
<rect x="349.5" y="26.8" class="st0" width="5.4" height="1.9"/>
<rect x="354.9" y="26.8" class="st0" width="5.4" height="1.9"/>
<rect x="360.4" y="26.8" class="st0" width="5.4" height="1.9"/>
<path class="st0" d="M365.7,26.8h16.9v2h-16.9V26.8z M368,13.6h1.8v13.2H368V13.6z M369.8,20.4h6.7v1.9h-6.7V20.4z M376.4,20.4
	c2.2,0,3.7,0.6,4.7,1.7c1,1.1,1.5,2.7,1.5,4.7h-1.8c0-1-0.1-1.7-0.3-2.3c-0.1-0.6-0.4-1-0.8-1.4c-0.3-0.3-0.8-0.6-1.4-0.7
	c-0.6-0.1-1.2-0.2-2-0.2V20.4z"/>
<path class="st0" d="M384.3,26.8c0-1.1,0.1-2.1,0.4-2.9c0.3-0.8,0.7-1.5,1.3-2c0.6-0.6,1.2-0.9,2-1.2c0.8-0.3,1.6-0.4,2.6-0.4v1.9
	c-0.9,0-1.7,0.1-2.2,0.3c-0.6,0.2-1,0.5-1.3,0.8c-0.3,0.4-0.6,0.8-0.6,1.5c-0.1,0.6-0.2,1.3-0.2,2.1H384.3z M384.3,26.8h6.2v2h-6.2
	V26.8z M390.5,20.3h1.8v13.5h-1.8V20.3z M392.3,26.8h3v2h-3V26.8z"/>
<rect x="395.3" y="26.8" class="st0" width="5.4" height="1.9"/>
<rect x="400.7" y="26.8" class="st0" width="5.4" height="1.9"/>
<path class="st0" d="M406.2,26.8h6.2v2h-6.2V26.8z M410.6,13.6h1.8v13.2h-1.8V13.6z"/>
<rect x="414" y="13.6" class="st0" width="1.8" height="15.1"/>
<path class="st0" d="M429,28.8c-2,0-3.4-0.6-4.5-1.6c-1.1-1-1.6-2.7-1.6-5h1.8c0,0.8,0.1,1.5,0.1,2.1c0.1,0.6,0.3,1,0.6,1.5
	c0.3,0.3,0.8,0.6,1.3,0.8c0.6,0.2,1.3,0.3,2.2,0.3L429,28.8L429,28.8z M436.9,28.8h-8v-1.9h8V28.8z M433.9,26.8h-1.8V13.6h1.8V26.8z
	"/>
<rect x="436.9" y="26.8" class="st0" width="5.4" height="1.9"/>
<rect x="442.4" y="26.8" class="st0" width="5.4" height="1.9"/>
<path class="st0" d="M447.8,26.8h14.3v2h-14.3V26.8z M450.2,20.4h3.8v1.9h-3.8V20.4z M454,32.8c-0.3-0.3-0.3-0.6-0.3-1
	c0-0.4,0.1-0.8,0.4-1c0.3-0.3,0.6-0.4,1-0.4c0.4,0,0.7,0.1,1,0.5c0.3,0.3,0.4,0.6,0.4,1c0,0.4-0.1,0.8-0.3,1
	c-0.1,0.1-0.3,0.2-0.5,0.3s-0.3,0.1-0.6,0.1c-0.2,0-0.3-0.1-0.6-0.1C454.2,33.1,454.1,32.9,454,32.8 M454.1,20.4
	c2.2,0,3.7,0.6,4.7,1.7c1,1.1,1.5,2.7,1.5,4.7h-1.8c0-1-0.1-1.7-0.3-2.3c-0.1-0.6-0.4-1-0.8-1.4c-0.3-0.3-0.8-0.6-1.4-0.7
	s-1.2-0.2-2-0.2L454.1,20.4L454.1,20.4z"/>
<rect x="462.1" y="26.8" class="st0" width="5.4" height="1.9"/>
<path class="st0" d="M467.6,26.8h17.2v2h-17.2V26.8z M471.9,20.7h1.8v4.9h-1.8V20.7z M476.2,20.7h1.8v4.9h-1.8V20.7z M480.5,20.7
	h1.8v4.9h-1.8V20.7z"/>
<rect x="484.8" y="26.8" class="st0" width="5.4" height="1.9"/>
<path class="st0" d="M490.1,26.8h6.2v2h-6.2V26.8z M494.5,13.6h1.8v13.2h-1.8V13.6z"/>
<rect x="498" y="13.6" class="st0" width="1.8" height="15.1"/>
<rect x="471.9" y="26.8" class="st2" width="1.8" height="1.9"/>
<rect x="476.2" y="26.8" class="st2" width="1.8" height="1.9"/>
<rect x="480.5" y="26.8" class="st2" width="1.8" height="1.9"/>
<polygon class="st0" points="102.1,0 111.6,0 111.6,50.4 105.7,50.4 105.7,50.5 79.2,16.5 79.2,50.4 69.7,50.4 69.7,0.1 77.4,0.1 
	102.1,31.3 "/>
<rect x="120.2" y="0" class="st2" width="9.2" height="9.2"/>
<rect x="120.2" y="21.2" class="st2" width="9.2" height="9.2"/>
<rect x="120.2" y="41.2" class="st2" width="9.2" height="9.2"/>
<rect x="131.2" y="0" class="st0" width="26.7" height="9.2"/>
<rect x="131.2" y="21.2" class="st0" width="20.3" height="9.2"/>
<rect x="131.2" y="41.2" class="st0" width="26.7" height="9.2"/>
<path class="st3" d="M54.3,45.5h-2.5v2.6h2.5V45.5z M51.7,40.5h-2.5V43h2.5V40.5z M39.2,43h-2.5v2.5h2.5l2.5-2.5v-2.5h-2.5V43z
	 M62.7,17.2C62.7,7.7,55,0,45.5,0h-6.3v2.5h-2.5V0h-2.5v2.5h-2.5V0h-2.5v2.5h2.5V5h-2.5v2.5h-2.5v2.6h2.5V7.6h7.5V5.1h-2.5v5h10.1
	c3.9,0,7.2,3.2,7.2,7.1s-3.2,7.1-7.2,7.1h-7.6v2.5h-2.5v-2.5h-5v2.5h2.5v2.5h-2.5v2.5h-2.5v2.5h2.5v-2.5h5v2.5h6.2l4.1,6.1h-0.3v5
	h-2.5v2.7h2.5v2.5h2.5v-2.5h-2.5v-2.5h5v5h15l-12-17.5C58.4,30.4,62.7,24.3,62.7,17.2"/>
<rect x="23.9" y="11.5" class="st0" width="10.3" height="10.1"/>
<rect x="12" y="0" class="st2" width="10.1" height="10.1"/>
<rect x="12" y="11.5" class="st2" width="10.1" height="10.1"/>
<rect y="0" class="st1" width="10.1" height="10.1"/>
</svg>
