<?xml version="1.0" encoding="utf-8"?>
<!-- Generator: Adobe Illustrator 21.0.0, SVG Export Plug-In . SVG Version: 6.00 Build 0)  -->
<svg version="1.1" id="Layer_1" xmlns="http://www.w3.org/2000/svg" xmlns:xlink="http://www.w3.org/1999/xlink" x="0px" y="0px"
	 viewBox="0 0 20.7 15.4" style="enable-background:new 0 0 20.7 15.4;" xml:space="preserve">
<style type="text/css">
	.st0{fill:#E70014;}
	.st1{fill:#F0F0F0;}
</style>
<g id="Layer_4">
	<rect class="st0" width="20.7" height="15.4"/>
	<circle class="st1" cx="10.4" cy="7.7" r="3.9"/>
	<g>
		<polygon class="st0" points="10.8,6.2 11.5,7.1 12.6,6.7 11.9,7.7 12.6,8.6 11.5,8.2 10.8,9.1 10.8,8 9.8,7.7 10.8,7.3 		"/>
		<path class="st0" d="M11.3,9.9C10,9.9,9,8.9,9,7.6s1-2.3,2.3-2.3c0.4,0,0.8,0.1,1.1,0.3c-0.5-0.5-1.2-0.8-2-0.8
			c-1.6,0-2.8,1.3-2.8,2.8s1.3,2.8,2.8,2.8c0.8,0,1.5-0.3,2-0.8C12,9.8,11.6,9.9,11.3,9.9z"/>
	</g>
</g>
</svg>
